<?xml version="1.0" encoding="UTF-8" standalone="no"?>
<!-- Generator: Adobe Illustrator 19.0.0, SVG Export Plug-In . SVG Version: 6.00 Build 0)  -->

<svg
   version="1.1"
   id="Layer_1"
   x="0px"
   y="0px"
   viewBox="0 0 64 64"
   xml:space="preserve"
   sodipodi:docname="email.svg"
   inkscape:version="1.4.2 (ebf0e940d0, 2025-05-08)"
   width="64"
   height="64"
   xmlns:inkscape="http://www.inkscape.org/namespaces/inkscape"
   xmlns:sodipodi="http://sodipodi.sourceforge.net/DTD/sodipodi-0.dtd"
   xmlns="http://www.w3.org/2000/svg"
   xmlns:svg="http://www.w3.org/2000/svg"><defs
   id="defs1" /><sodipodi:namedview
   id="namedview1"
   pagecolor="#ffffff"
   bordercolor="#000000"
   borderopacity="0.25"
   inkscape:showpageshadow="2"
   inkscape:pageopacity="0.0"
   inkscape:pagecheckerboard="0"
   inkscape:deskcolor="#d1d1d1"
   showgrid="false"
   inkscape:zoom="2.2033553"
   inkscape:cx="149.77158"
   inkscape:cy="41.073721"
   inkscape:window-width="2133"
   inkscape:window-height="872"
   inkscape:window-x="0"
   inkscape:window-y="0"
   inkscape:window-maximized="1"
   inkscape:current-layer="Layer_1" />
		<path
   d="M 32.000467,0 C 14.327852,0 0.001,14.327182 0.001,31.99968 0.001,49.671752 14.327852,64 32.000467,64 49.67308,64 64.001,49.671752 64.001,31.99968 64.001,14.327182 49.67308,0 32.000467,0 Z m 6.5e-4,11.239793 L 50.93754,23.04791 H 13.064685 Z M 51.17349,41.903992 h -0.002 c 0,1.893992 -1.534962,3.428728 -3.428754,3.428728 H 16.259404 c -1.894004,0 -3.42875,-1.534948 -3.42875,-3.428728 V 23.799277 c 0,-0.20032 0.02048,-0.395096 0.05376,-0.586459 l 18.092675,11.28182 c 0.0222,0.01388 0.04586,0.02324 0.06869,0.03604 0.02388,0.0132 0.04822,0.02604 0.07253,0.0382 0.127786,0.06592 0.259416,0.11904 0.394032,0.153816 0.01388,0.0038 0.02772,0.0056 0.0416,0.0088 0.147627,0.03476 0.297179,0.05653 0.446512,0.05653 h 10e-4 c 0.001,0 0.0022,0 0.0022,0 0.149336,0 0.298884,-0.02112 0.446516,-0.05653 0.01388,-0.0035 0.02772,-0.005 0.0416,-0.0088 0.1344,-0.03476 0.265604,-0.08789 0.394032,-0.153816 0.02432,-0.01214 0.04864,-0.02496 0.07253,-0.0382 0.0226,-0.0128 0.0465,-0.0222 0.06869,-0.03604 L 51.11972,23.212818 c 0.0332,0.19136 0.05376,0.385712 0.05376,0.586459 z"
   id="path1"
   style="stroke-width:0.213336" />
</svg>
